<?xml version="1.0" encoding="UTF-8" standalone="no"?>
<!-- Created with Inkscape (http://www.inkscape.org/) -->

<svg
   xmlns:dc="http://purl.org/dc/elements/1.1/"
   xmlns:cc="http://creativecommons.org/ns#"
   xmlns:rdf="http://www.w3.org/1999/02/22-rdf-syntax-ns#"
   xmlns:svg="http://www.w3.org/2000/svg"
   xmlns="http://www.w3.org/2000/svg"
   xmlns:sodipodi="http://sodipodi.sourceforge.net/DTD/sodipodi-0.dtd"
   xmlns:inkscape="http://www.inkscape.org/namespaces/inkscape"
   width="744.09448819"
   height="1052.3622047"
   id="svg2"
   version="1.1"
   inkscape:version="0.48.4 r9939"
   sodipodi:docname="New document 1">
  <defs
     id="defs4" />
  <sodipodi:namedview
     id="base"
     pagecolor="#ffffff"
     bordercolor="#666666"
     borderopacity="1.0"
     inkscape:pageopacity="0.0"
     inkscape:pageshadow="2"
     inkscape:zoom="0.98994949"
     inkscape:cx="582.34209"
     inkscape:cy="198.69695"
     inkscape:document-units="px"
     inkscape:current-layer="layer1"
     showgrid="false"
     inkscape:window-width="1358"
     inkscape:window-height="743"
     inkscape:window-x="0"
     inkscape:window-y="17"
     inkscape:window-maximized="0" />
  <metadata
     id="metadata7">
    <rdf:RDF>
      <cc:Work
         rdf:about="">
        <dc:format>image/svg+xml</dc:format>
        <dc:type
           rdf:resource="http://purl.org/dc/dcmitype/StillImage" />
        <dc:title></dc:title>
      </cc:Work>
    </rdf:RDF>
  </metadata>
  <g
     inkscape:label="Layer 1"
     inkscape:groupmode="layer"
     id="layer1">
    <g
       id="g4050"
       inkscape:export-filename="/home/kagura/git/gegenokitaro.github.com/img/dino.png"
       inkscape:export-xdpi="90"
       inkscape:export-ydpi="90">
      <rect
         y="789.72253"
         x="414.16254"
         height="266.68027"
         width="267.6904"
         id="rect4048"
         style="fill:none;fill-opacity:1;stroke:none;stroke-width:0.94483399000000001;stroke-opacity:1" />
      <g
         id="g4024">
        <path
           style="fill:#ffffff;stroke:#000000;stroke-width:1.8;stroke-linecap:butt;stroke-linejoin:miter;stroke-opacity:1;stroke-miterlimit:4;stroke-dasharray:none"
           d="m 497.5,963.07647 c 0,0 -15.35714,-4.64286 -14.64286,12.85714 0.71429,17.5 12.85715,37.85719 11.07143,39.99999 -1.78571,2.1429 -11.42857,7.1429 -9.64285,9.2857 1.78571,2.1429 19.64285,0 21.42857,1.4286 1.78571,1.4286 12.85714,-16.7857 12.85714,-16.7857 z"
           id="path4000"
           inkscape:connector-curvature="0" />
        <path
           style="fill:#ffffff;stroke:#000000;stroke-width:1.8;stroke-linecap:butt;stroke-linejoin:miter;stroke-opacity:1;stroke-miterlimit:4;stroke-dasharray:none"
           d="m 499.01536,1005.3901 c 0,0 -9.59645,-159.09904 14.14213,-178.79701 23.73859,-19.69798 72.73099,-16.16244 87.3782,21.2132 14.64721,37.37565 13.63706,140.91628 17.17259,145.46197 3.53554,4.54569 28.28427,1.01015 28.28427,1.01015 0,0 -11.11167,23.73859 -30.80965,26.76909 -19.69797,3.0304 -105.05586,-1.0102 -109.60155,-1.5153 -4.54569,-0.5051 -6.56599,-14.1421 -6.56599,-14.1421 z"
           id="path3153"
           inkscape:connector-curvature="0" />
        <path
           style="fill:#ffffff;stroke:none;stroke-width:1px;stroke-linecap:butt;stroke-linejoin:miter;stroke-opacity:1"
           d="m 593.40316,957.19693 c 0,0 -41.07143,-5.71429 -40,23.57143 1.07143,29.28564 15,29.28564 13.21428,32.85704 -1.78571,3.5714 -5,14.6429 -7.5,15.7143 -2.5,1.0714 -3.21428,6.4286 2.5,5.3571 5.71429,-1.0714 25.71429,3.5715 28.57143,-0.7142 2.85714,-4.2858 4.28572,-12.5 4.28572,-12.5 0,0 7.5,0.3571 11.42857,-5 z"
           id="path3980-2"
           inkscape:connector-curvature="0" />
        <path
           sodipodi:type="arc"
           style="fill:#ffffff;fill-opacity:1;stroke:#000000;stroke-opacity:1"
           id="path3950"
           sodipodi:cx="519.34467"
           sodipodi:cy="839.09375"
           sodipodi:rx="5.4295697"
           sodipodi:ry="5.4295697"
           d="m 524.77424,839.09375 a 5.4295697,5.4295697 0 1 1 -10.85914,0 5.4295697,5.4295697 0 1 1 10.85914,0 z"
           transform="matrix(1.4651163,0,0,1.4651163,-243.82851,-390.02364)" />
        <path
           style="fill:#ffffff;stroke:#000000;stroke-width:1.8;stroke-linecap:butt;stroke-linejoin:miter;stroke-opacity:1;stroke-miterlimit:4;stroke-dasharray:none"
           d="m 475.73967,900.03242 c 0,0 -9.66824,-33.74167 -11.8111,-38.74167 -2.14285,-5 -1.78571,-10.35714 4.28572,-11.42857 6.07143,-1.07143 36.42857,-12.14285 80.35714,-1.07143 43.92857,11.07143 25.783,52.1144 8.99729,53.18583 -16.78572,1.07143 -64.6862,4.12727 -81.82905,-1.94416 z"
           id="path3155"
           inkscape:connector-curvature="0"
           sodipodi:nodetypes="cssssc" />
        <path
           sodipodi:type="arc"
           style="fill:#ffffff;fill-opacity:1;stroke:#000000;stroke-width:1.11858403;stroke-miterlimit:4;stroke-opacity:1;stroke-dasharray:none"
           id="path3157"
           sodipodi:cx="572.88275"
           sodipodi:cy="843.13434"
           sodipodi:rx="9.975256"
           sodipodi:ry="9.975256"
           d="m 582.85801,843.13434 a 9.975256,9.975256 0 1 1 -19.95051,0 9.975256,9.975256 0 1 1 19.95051,0 z"
           transform="matrix(1.4303798,0,0,1.4303798,-244.28431,-365.89842)" />
        <path
           style="fill:none;stroke:#000000;stroke-width:1px;stroke-linecap:butt;stroke-linejoin:miter;stroke-opacity:1"
           d="m 561.42857,836.82647 27.14286,-0.53572"
           id="path3927"
           inkscape:connector-curvature="0" />
        <path
           style="fill:none;stroke:#000000;stroke-width:1px;stroke-linecap:butt;stroke-linejoin:miter;stroke-opacity:1"
           d="M 561.78572,843.96933 588.75,843.25504"
           id="path3929"
           inkscape:connector-curvature="0" />
        <path
           style="fill:none;stroke:#000000;stroke-width:1px;stroke-linecap:butt;stroke-linejoin:miter;stroke-opacity:1"
           d="m 471.42857,885.57647 c 0,0 2.85715,-7.67857 5.53572,-6.25 2.67857,1.42857 3.03571,7.32143 6.60714,7.32143 3.57143,0 3.39286,-11.78572 7.32143,-9.64286 3.92857,2.14286 5.35714,11.60714 8.39286,9.82143 3.03571,-1.78572 5.71428,-13.92857 8.75,-10.71429 3.03571,3.21429 4.64285,11.96429 6.78571,11.25 2.14286,-0.71428 4.46429,-14.46428 8.03571,-11.78571 3.57143,2.67857 2.85715,11.07143 6.25,8.92857 3.39286,-2.14286 6.78572,-8.75 9.46429,-6.07143 2.67857,2.67857 5,11.96429 9.28571,7.14286 4.28572,-4.82143 12.5,-4.46429 12.5,-4.46429"
           id="path3932"
           inkscape:connector-curvature="0" />
        <path
           style="fill:#000000;stroke:#000000;stroke-width:1px;stroke-linecap:butt;stroke-linejoin:miter;stroke-opacity:1"
           d="m 565.8117,837.01029 c 0,0 -0.12627,2.84105 1.07328,3.15672 1.19956,0.31568 3.03046,0.0631 2.96733,-3.03045 z"
           id="path3934"
           inkscape:connector-curvature="0" />
        <path
           style="fill:#000000;stroke:#000000;stroke-width:1.83101201px;stroke-linecap:butt;stroke-linejoin:miter;stroke-opacity:1"
           d="m 525.8561,850.07468 c 0,0 -8.29892,-0.78594 -6.22077,2.97921 2.07812,3.76514 8.18627,0.47899 6.22077,-2.97921 z"
           id="path3936"
           inkscape:connector-curvature="0" />
        <path
           style="fill:none;stroke:#000000;stroke-width:1px;stroke-linecap:butt;stroke-linejoin:miter;stroke-opacity:1"
           d="m 555.33136,820.0271 c 0,0 -2.77792,6.31345 2.52538,5.55584 5.3033,-0.75762 27.02158,-2.77792 33.33504,0.25253"
           id="path3946"
           inkscape:connector-curvature="0" />
        <path
           style="fill:none;stroke:#000000;stroke-width:1px;stroke-linecap:butt;stroke-linejoin:miter;stroke-opacity:1"
           d="m 524.52171,824.06771 c 0,0 4.04061,10.35406 -4.54569,5.3033 -8.58629,-5.05076 -11.61675,-10.10153 -12.37437,-6.81853 -0.75761,3.28299 -0.75761,4.79822 -0.75761,4.79822"
           id="path3948"
           inkscape:connector-curvature="0" />
        <path
           style="fill:none;stroke:#000000;stroke-width:1px;stroke-linecap:butt;stroke-linejoin:miter;stroke-opacity:1"
           d="M 524.28572,836.55861 509.375,838.25504"
           id="path3952"
           inkscape:connector-curvature="0" />
        <path
           style="fill:none;stroke:#000000;stroke-width:1px;stroke-linecap:butt;stroke-linejoin:miter;stroke-opacity:1"
           d="m 524.55357,840.93361 -14.28571,1.78571"
           id="path3954"
           inkscape:connector-curvature="0" />
        <path
           style="fill:#000000;stroke:#000000;stroke-width:0.71912599px;stroke-linecap:butt;stroke-linejoin:miter;stroke-opacity:1"
           d="m 512.6226,838.0606 c 0,0 -0.0908,2.04307 0.77182,2.27008 0.86264,0.22701 2.17928,0.0454 2.13389,-2.17928 z"
           id="path3934-0"
           inkscape:connector-curvature="0" />
        <path
           style="fill:none;stroke:#000000;stroke-width:1.8;stroke-linecap:butt;stroke-linejoin:miter;stroke-opacity:1;stroke-miterlimit:4;stroke-dasharray:none"
           d="m 504.06612,926.85073 c 0,0 -1.76777,21.46574 0,25.00127 1.76777,3.53554 7.32361,5.30331 9.09137,3.53554 1.76777,-1.76777 5.3033,-8.08122 3.53554,-8.33376 -1.76777,-0.25254 -4.79823,-1.01015 -4.79823,-1.01015 l 3.78807,-18.18275"
           id="path3974"
           inkscape:connector-curvature="0" />
        <path
           style="fill:none;stroke:#000000;stroke-width:1.8;stroke-linecap:butt;stroke-linejoin:miter;stroke-opacity:1;stroke-miterlimit:4;stroke-dasharray:none"
           d="m 540.93669,929.37611 c 0,0 -4.29315,21.2132 2.27284,25.50635 6.56599,4.29315 12.62691,-6.56599 12.37437,-8.33376 -0.25254,-1.76776 -5.3033,-2.77792 -5.3033,-2.77792 l 3.283,-17.67767"
           id="path3976"
           inkscape:connector-curvature="0" />
        <path
           style="fill:none;stroke:#000000;stroke-width:1.8;stroke-linecap:butt;stroke-linejoin:miter;stroke-opacity:1;stroke-miterlimit:4;stroke-dasharray:none"
           d="m 593.21429,957.00504 c 0,0 -41.07143,-5.71429 -40,23.57143 1.07143,29.28573 15,29.28573 13.21428,32.85713 -1.78571,3.5714 -5,14.6429 -7.5,15.7143 -2.5,1.0714 -3.21428,6.4286 2.5,5.3571 5.71429,-1.0714 25.71429,3.5715 28.57143,-0.7142 2.85714,-4.2858 4.28572,-12.5 4.28572,-12.5 0,0 7.5,0.3571 11.42857,-5"
           id="path3980"
           inkscape:connector-curvature="0" />
        <path
           style="fill:#ffffff;stroke:none;stroke-width:1px;stroke-linecap:butt;stroke-linejoin:miter;stroke-opacity:1"
           d="m 531.42857,841.6479 c 2.5,-0.35715 3.92857,11.07143 11.78572,14.64285 7.85714,3.57143 19.28571,-5.35714 19.28571,-5.35714 z"
           id="path4002"
           inkscape:connector-curvature="0" />
        <path
           style="fill:#ffffff;stroke:none;stroke-width:1px;stroke-linecap:butt;stroke-linejoin:miter;stroke-opacity:1"
           d="m 552.5,850.21933 c 0,0 20.35714,20.35714 19.28572,26.78571 -1.07143,6.42857 -7.85715,16.07143 -5.35715,18.57143 2.5,2.5 14.64286,4.64286 16.07143,-4.28572 1.42857,-8.92857 7.14286,-20.35714 2.85714,-23.57142 -4.28571,-3.21429 -24.64285,-18.57143 -26.42857,-18.57143 -1.78571,0 -6.42857,1.07143 -6.42857,1.07143 z"
           id="path4004"
           inkscape:connector-curvature="0" />
        <path
           style="fill:#000000;stroke:#000000;stroke-width:1.75891399px;stroke-linecap:butt;stroke-linejoin:miter;stroke-opacity:1"
           d="m 472.24227,852.39105 c 0,0 7.65823,-0.78594 5.74052,2.97921 -1.91768,3.76514 -7.55428,0.47899 -5.74052,-2.97921 z"
           id="path3936-5"
           inkscape:connector-curvature="0" />
      </g>
    </g>
  </g>
</svg>
